<svg width="33" height="33" viewBox="0 0 33 33" fill="none" xmlns="http://www.w3.org/2000/svg">
<g id="CK Mark Box" clip-path="url(#clip0_234_688)">
<path id="CK Mark Box_2" d="M27.5 29.3333H5.5C4.49167 29.3333 3.66667 28.5083 3.66667 27.5V5.5C3.66667 4.49167 4.49167 3.66667 5.5 3.66667H27.5C28.5083 3.66667 29.3333 4.49167 29.3333 5.5V27.5C29.3333 28.5083 28.5083 29.3333 27.5 29.3333ZM29.3333 0H3.66667C1.65 0 0 1.65 0 3.66667V29.3333C0 31.35 1.65 33 3.66667 33H29.3333C31.35 33 33 31.35 33 29.3333V3.66667C33 1.65 31.35 0 29.3333 0Z" fill="#FFF5B5"/>
</g>
<defs>
<clipPath id="clip0_234_688">
<rect width="33" height="33" fill="white"/>
</clipPath>
</defs>
</svg>
