<svg width="18" height="15" viewBox="0 0 18 15" fill="none" xmlns="http://www.w3.org/2000/svg">
<g id="CK Mark" clip-path="url(#clip0_234_687)">
<path id="Vector" d="M18 2.92929C18 3.26599 17.8916 3.55219 17.6748 3.78788L9.2671 12.9293L7.68774 14.6465C7.47097 14.8822 7.20774 15 6.89806 15C6.58839 15 6.32516 14.8822 6.10839 14.6465L4.52903 12.9293L0.325161 8.35859C0.108387 8.1229 0 7.8367 0 7.5C0 7.1633 0.108387 6.8771 0.325161 6.64141L1.90452 4.92424C2.12129 4.68855 2.38452 4.57071 2.69419 4.57071C3.00387 4.57071 3.2671 4.68855 3.48387 4.92424L6.89806 8.64899L14.5161 0.353535C14.7329 0.117845 14.9961 0 15.3058 0C15.6155 0 15.8787 0.117845 16.0955 0.353535L17.6748 2.07071C17.8916 2.3064 18 2.59259 18 2.92929Z" fill="#FFF5B5"/>
</g>
<defs>
<clipPath id="clip0_234_687">
<rect width="18" height="15" fill="white"/>
</clipPath>
</defs>
</svg>
