<svg width="276" height="64" viewBox="0 0 276 64" fill="none" xmlns="http://www.w3.org/2000/svg">
<path d="M272.053 33.6714C272.347 33.7496 272.752 33.6388 272.916 33.013C273.073 32.4588 272.798 32.2111 272.484 32.1198L272.177 32.0351L271.753 33.5867L272.047 33.6649L272.053 33.6714ZM269.91 34.8449C270.361 34.9166 270.4 34.9036 270.498 34.5776L271.151 32.1915C271.243 31.859 271.21 31.8264 270.785 31.6569L270.87 31.344L273.073 31.9438C273.7 32.1133 274.183 32.5436 273.994 33.2281C273.863 33.7105 273.412 34.0365 272.863 34.056L273.282 35.4055C273.38 35.7054 273.523 35.8293 273.674 35.8684L273.589 36.1813L272.687 35.9336C272.491 35.8749 272.386 35.7119 272.308 35.399L271.922 33.9648L271.668 33.8931L271.419 34.8123C271.321 35.1448 271.354 35.1774 271.772 35.3469L271.687 35.6598L269.818 35.1448L269.903 34.8318L269.91 34.8449ZM272.942 30.9659C271.354 30.5291 269.844 31.4288 269.394 33.0325C268.956 34.6363 269.799 36.1813 271.393 36.6116C272.981 37.0484 274.497 36.1487 274.941 34.545C275.386 32.9478 274.543 31.3962 272.942 30.9659ZM273.184 30.1053C275.222 30.666 276.425 32.7587 275.856 34.7992C275.301 36.8398 273.197 38.0393 271.151 37.4722C269.106 36.9115 267.904 34.8123 268.472 32.7717C269.041 30.7312 271.138 29.5382 273.184 30.0988M252.057 41.4359C252.332 42.5768 252.358 44.0697 252.358 44.0697C252.358 44.0697 252.312 43.3591 252.855 41.5989L257.527 27.9083C258.71 24.3814 258.67 21.8128 257.096 19.7983L257.154 19.6875L268.479 23.8859L268.446 24.0163C266.087 24.7008 264.284 26.6501 263.094 30.2097C262.428 32.3415 252.07 62.741 252.07 62.741L246.359 60.5896L240.726 32.7717C240.439 31.6374 240.426 30.1379 240.426 30.1379C240.426 30.1379 240.465 30.842 239.929 32.6088C239.446 34.1995 234.767 48.1573 234.767 48.1573C233.721 51.8603 233.859 54.4093 235.355 56.3651L235.303 56.489L223.201 52.9425L223.22 52.8121C225.684 52.121 227.775 50.2565 228.925 46.71L236.59 22.6994C237.766 18.7683 237.459 15.1827 235.322 13.1291L235.368 13.0052L246.523 16.2388L252.057 41.4424V41.4359ZM213.203 12.438C207.733 11.2385 204.094 17.8425 202.212 26.3698C200.238 35.3599 201.153 42.3225 206.159 43.4178C210.929 44.4608 214.974 38.587 216.941 29.5968C218.816 21.0696 218.666 13.6311 213.196 12.438M226.553 31.7221C223.652 43.6525 214.784 51.9189 204.355 49.6307C192.992 47.1403 189.496 36.4291 192.443 24.2641C195.357 12.2425 203.591 4.67354 214.209 6.45331C226.795 8.55905 229.382 20.0721 226.553 31.7221ZM171.669 44.1284C166.337 43.9654 165.762 42.4594 162.743 41.7684C160.534 41.2664 159.031 42.2313 158.378 43.007L158.247 42.994L158.888 28.2669L159.018 28.2473C160.11 31.1028 163.207 35.06 166.795 37.0614C170.055 38.8803 173.362 38.1241 175.048 35.9858C176.511 34.1212 176.884 30.679 174.571 28.3256C172.257 25.9721 168.605 24.3879 165.54 22.041C159.345 17.2884 159.744 10.8669 161.684 7.30082C164.39 2.32008 170.068 0.292572 175.133 0.78152C178.217 1.08141 179.602 1.87024 181.759 2.55477C183.922 3.2393 185.83 2.82858 186.228 2.60692L186.359 2.633L185.379 14.2634H185.248C184.137 11.1994 180.465 7.36602 176.609 6.64889C173.225 6.02956 171.349 7.22259 170.519 8.61772C169.238 10.7626 169.807 13.1486 172.14 14.7589C175.518 17.0863 179.622 18.8335 182.327 21.3695C186.254 25.0659 187.503 31.6113 184.013 37.407C181.197 42.0813 175.668 44.2588 171.689 44.1349M152.307 0.292572L151.994 9.47175L151.863 9.48479C150.399 6.06868 146.688 5.37763 143.362 5.40371L136.161 5.47542L135.964 16.5452L139.617 16.6495C144.472 16.7473 145.91 16.3431 147.687 13.279L147.818 13.2986L147.354 26.448L147.224 26.4611C145.616 23.0449 142.029 22.8102 138.709 22.8494L135.978 22.8363L135.69 35.047L143.218 35.1969C148.073 35.2882 150.51 33.9517 152.079 31.1484L152.209 31.1745L150.87 41.9509C141.983 41.6575 131.782 41.5989 123.83 41.964L123.81 41.8336C125.607 40.6471 126.587 37.9807 126.607 33.9583L126.895 7.76369C126.927 4.04117 126.666 1.65511 124.091 0.370804L124.111 0.240418C132.776 -0.0790283 143.793 -0.0985862 152.327 0.292572M103.795 1.57036L116.57 0.59246L116.596 0.722846C113.263 2.30052 113.616 5.15597 113.956 9.59562L115.655 34.884C116.067 38.587 116.982 41.4489 118.628 42.1595L118.615 42.2899C118.615 42.2899 115.635 42.4659 111.525 42.7984C107.435 43.1309 104.403 43.4308 104.403 43.4308L104.376 43.3004C105.879 42.2899 107.154 39.1737 106.866 35.3403C106.866 35.3403 105.762 18.8921 105.651 17.5166C105.513 15.965 105.664 14.8958 105.664 14.8958C105.664 14.8958 105.461 16.0497 105.063 17.3797C104.657 18.7096 96.8617 44.7933 96.8617 44.7933L96.6591 44.8064C96.6591 44.8064 85.0603 23.3774 84.0213 21.6563C83.1914 20.2808 82.8582 18.9769 82.8582 18.9769C82.8582 18.9769 83.2633 20.196 83.5312 21.8389C83.7991 23.4752 85.8575 37.922 85.8575 37.922C86.5175 41.7097 88.5236 44.4217 90.2161 45.0345L90.2291 45.1649L79.0158 46.9903L78.9766 46.8665C80.3946 45.7712 80.5841 42.7724 80.0744 39.0824L76.6765 14.0092C76.1472 10.1954 74.1999 7.1574 71.3704 6.22514V6.09475L84.0997 3.92382C84.0997 3.92382 94.7314 23.1688 96.5938 26.096C97.7243 22.4386 103.795 1.56384 103.795 1.56384M49.9567 20.2156L48.8719 35.7511L56.6088 33.5997L49.9501 20.209L49.9567 20.2156ZM68.7893 49.1939C66.0251 49.8979 61.3137 50.9476 61.3137 50.9476L61.2745 50.8237C62.3723 49.8132 63.5681 47.4271 61.8496 44.1479L59.2815 38.9781L48.4406 41.9053L48.0159 47.9878C47.9963 51.6386 49.9044 53.2098 51.3616 53.5227L51.3877 53.6531C51.3877 53.6531 47.9114 54.7222 45.206 55.498C42.553 56.3455 39.2008 57.343 39.2008 57.343L39.155 57.2126C40.2006 56.3195 41.3507 53.2749 41.5728 49.735C42.1805 40.2885 43.0692 26.1742 43.8665 19.8505C44.252 16.8125 43.8795 13.9375 41.5271 13.1356L41.4944 12.9791C41.4944 12.9791 44.7944 12.0143 48.8066 11.0625C52.1719 10.2606 56.1906 9.22402 56.1906 9.22402L56.2429 9.38048C54.6877 11.4471 55.877 13.6245 57.3538 16.3496C58.7456 18.9443 70.6255 40.6471 71.6253 42.4399C73.37 45.4453 74.4939 46.6579 76.2844 47.4597L76.2975 47.5901C76.2975 47.5901 71.5664 48.6006 68.7696 49.2004M17.6237 25.6722C16.9898 23.2992 14.9641 22.0736 13.5853 21.9888L13.5461 21.8649C13.5461 21.8649 17.2774 20.4894 19.9827 19.5702C22.786 18.6183 26.7917 17.3014 26.7917 17.3014L26.8505 17.4318C25.818 18.3576 25.3606 20.3199 25.9487 22.6212C25.9487 22.6212 31.0849 42.7398 31.8233 45.3996C32.5551 48.0595 33.568 49.5459 34.9599 49.735L35.0056 49.8588C34.2868 50.5564 33.7118 52.2971 32.9799 53.8943C32.235 55.5111 30.6928 60.4331 24.6875 62.7605C18.1465 65.3031 11.4747 63.7645 8.63868 59.1554C6.78286 56.1565 7.19454 52.0232 10.1678 50.3347C12.7489 48.8744 15.5522 49.8002 16.6174 51.9385C17.6498 54.0051 16.9637 56.2217 16.1273 56.9453C15.9574 57.1018 16.1273 57.3886 16.5259 57.6494C18.2837 58.8359 20.2636 58.7577 22.1783 57.7341C24.6222 56.4238 25.4521 54.3246 24.1778 49.4677C23.1519 45.5691 18.336 28.3256 17.6172 25.6657" fill="#F1E4B2"/>
</svg>
