<svg width="22" height="30" viewBox="0 0 22 30" fill="none" xmlns="http://www.w3.org/2000/svg">
<g id="Signifier">
<path id="Vector" d="M7.17648 24.7244C7.37335 24.8243 7.60132 24.8632 7.83135 24.8222C7.83964 24.8211 7.84689 24.8148 7.85 24.8064C8.1536 23.9139 8.16085 22.787 7.64691 21.7273C7.19928 20.8012 6.54752 20.2567 5.80043 20.0023C5.78799 19.9981 5.77867 20.0159 5.79007 20.0233C6.27189 20.3534 6.67289 20.8107 6.95266 21.3899C7.49355 22.5053 7.4749 23.7005 7.14021 24.6351C7.12778 24.6698 7.14332 24.7076 7.17544 24.7244H7.17648Z" fill="#FFF0BF"/>
<path id="Vector_2" d="M12.7158 0.0089568L12.7324 0.0730822C12.7324 0.0730822 12.7324 0.0825433 12.7282 0.085697C12.006 0.585034 11.3066 1.918 11.7097 3.44334C12.1625 5.15896 14.069 12.3778 14.7332 14.8903L15.4565 17.6308C15.9114 19.3527 16.5435 20.3083 17.419 20.4387C17.4232 20.4387 17.4263 20.4418 17.4284 20.446L17.4532 20.5133C17.4532 20.5133 17.4532 20.5228 17.4501 20.5259C16.9952 20.9769 16.6243 22.0912 16.1538 23.1151C15.6762 24.1548 14.6742 27.3222 10.86 28.8013C6.70281 30.4128 2.47725 29.3963 0.693979 26.4107C-0.470692 24.466 -0.191958 21.8063 1.70115 20.7288C3.34557 19.7953 5.11641 20.4071 5.78372 21.7885C6.43133 23.1246 5.98474 24.5501 5.4511 25.0179C5.3423 25.1156 5.44799 25.3038 5.69875 25.4751C6.80747 26.2489 8.06643 26.2068 9.28395 25.554C10.8413 24.7204 11.3957 23.2875 10.5885 20.2284C9.92431 17.7149 6.98051 6.56867 6.52666 4.8499C6.12358 3.32455 4.86151 2.52456 3.99008 2.45834C3.9849 2.45834 3.98076 2.45413 3.97972 2.44993L3.96314 2.3858C3.96107 2.37949 3.96521 2.37319 3.97143 2.37108L12.7013 0.000546915C12.7075 -0.00155556 12.7137 0.00264939 12.7158 0.0089568Z" fill="#FFF0BF"/>
<path id="Vector_3" d="M18.1216 21.617C17.6263 22.8848 16.8979 24.7118 16.0813 26.0227C16.0741 26.0343 16.0886 26.0469 16.0979 26.0385C16.9942 25.3152 17.8998 23.9002 18.4003 22.6367C18.7195 21.8325 19.3961 20.1736 19.6665 19.895C19.679 19.8824 19.6728 19.8614 19.6562 19.8561C19.135 19.6995 18.0335 19.5649 17.3849 17.1072L13.6815 3.07947C13.3261 1.73179 13.638 0.914978 14.1074 0.376745C14.1157 0.367284 14.1074 0.353618 14.095 0.357823C13.2235 0.634298 12.6516 1.94519 13.0484 3.44951C13.5012 5.16512 16.7041 17.2922 16.7041 17.2922C16.9165 18.0953 17.1921 18.725 17.5144 19.1823C17.8294 19.6291 18.2667 19.9718 18.6915 20.0622C18.7329 20.0706 18.7993 20.078 18.8469 20.0811C18.8676 20.0832 18.8759 20.1074 18.8604 20.1221C18.8376 20.1442 18.8148 20.1705 18.792 20.2009C18.5879 20.4638 18.3589 21.0104 18.1206 21.618" fill="#FFF0BF"/>
<path id="Vector_4" d="M19.2997 17.3584V16.1358H18.8469V15.7973H20.1276V16.1358H19.6748V17.3584H19.2997Z" fill="#FFF0BF"/>
<path id="Vector_5" d="M21.625 17.3584V16.1779L21.2634 17.3584H21.052L20.6852 16.1779V17.3584H20.3516V15.7973H20.9225L21.1836 16.7729L21.4592 15.7973H22.0001V17.3584H21.625Z" fill="#FFF0BF"/>
</g>
</svg>
