<svg width="31" height="31" viewBox="0 0 31 31" fill="none" xmlns="http://www.w3.org/2000/svg">
<g id="hangup">
<path id="phone-off" d="M27.497 3.503C27.3689 3.37459 27.2166 3.27271 27.0491 3.2032C26.8815 3.13369 26.7019 3.09791 26.5205 3.09791C26.3391 3.09791 26.1595 3.13369 25.9919 3.2032C25.8243 3.27271 25.6721 3.37459 25.544 3.503L3.503 25.544C3.24724 25.805 3.10277 26.1551 3.1 26.5205C3.09958 26.7936 3.18027 27.0608 3.33182 27.288C3.48337 27.5152 3.69897 27.6924 3.9513 27.797C4.20363 27.9015 4.48133 27.9289 4.7492 27.8755C5.01707 27.8221 5.26306 27.6903 5.456 27.497L27.497 5.456C27.6254 5.32786 27.7273 5.17565 27.7968 5.00809C27.8663 4.84053 27.9021 4.66091 27.9021 4.4795C27.9021 4.29809 27.8663 4.11846 27.7968 3.9509C27.7273 3.78334 27.6254 3.63114 27.497 3.503ZM7.285 19.5765C4.5696 15.9953 3.0999 11.6243 3.1 7.13C3.10408 6.06243 3.52998 5.03976 4.28487 4.28487C5.03976 3.52998 6.06243 3.10408 7.13 3.1H7.6415L9.3 10.292L8.4475 10.7415C7.099 11.439 6.1225 11.9505 6.634 13.1905C7.21274 14.8514 8.03269 16.4182 9.0675 17.8405L11.284 15.6395C10.8136 14.9395 10.3989 14.2036 10.044 13.4385C11.9505 12.4 11.966 12.4 12.1675 12.1675C12.3484 11.9824 12.4801 11.7549 12.5504 11.5058C12.6208 11.2567 12.6277 10.9939 12.5705 10.7415L10.447 1.55C10.3875 1.29378 10.2639 1.0569 10.0876 0.861663C9.91136 0.666426 9.68832 0.519253 9.4395 0.434C9.07752 0.304713 8.70373 0.211266 8.3235 0.155C7.93174 0.0641625 7.53196 0.012244 7.13 0C5.239 0 3.42546 0.751194 2.08833 2.08833C0.751194 3.42546 0 5.239 0 7.13C0.00135101 12.4471 1.78602 17.6101 5.0685 21.793L7.285 19.5765ZM30.907 22.692C30.8418 22.307 30.7433 21.9284 30.6125 21.5605C30.5272 21.3117 30.3801 21.0886 30.1848 20.9124C29.9896 20.7361 29.7527 20.6124 29.4965 20.553L20.1965 18.4295C19.9441 18.3723 19.6813 18.3791 19.4322 18.4495C19.1831 18.5199 18.9556 18.6516 18.7705 18.8325C18.5535 19.034 18.538 19.0495 17.5305 20.9715C16.7722 20.6131 16.0416 20.1986 15.345 19.7315L13.1285 21.948C14.5224 22.9703 16.0575 23.7848 17.6855 24.366C18.9875 24.893 19.499 23.9165 20.1965 22.568L20.646 21.7155L27.9 23.3585V23.87C27.8959 24.9376 27.47 25.9602 26.7151 26.7151C25.9602 27.47 24.9376 27.8959 23.87 27.9C19.3916 27.89 15.0385 26.4208 11.47 23.715L9.207 25.9315C13.3899 29.214 18.5529 30.9986 23.87 31C24.8063 31 25.7335 30.8156 26.5985 30.4572C27.4636 30.0989 28.2496 29.5737 28.9117 28.9117C29.5737 28.2496 30.0989 27.4636 30.4572 26.5985C30.8156 25.7335 31 24.8063 31 23.87C31.0005 23.4755 30.9694 23.0815 30.907 22.692Z" fill="white"/>
</g>
</svg>
